<?xml version="1.0" standalone="no"?>
<!DOCTYPE svg PUBLIC "-//W3C//DTD SVG 20010904//EN"
 "http://www.w3.org/TR/2001/REC-SVG-20010904/DTD/svg10.dtd">
<svg version="1.0" xmlns="http://www.w3.org/2000/svg"
 width="256.000000pt" height="256.000000pt" viewBox="0 0 256.000000 256.000000"
 preserveAspectRatio="xMidYMid meet">
<metadata>
Created by potrace 1.16, written by Peter Selinger 2001-2019
</metadata>
<g transform="translate(0.000000,256.000000) scale(0.100000,-0.100000)"
fill="currentColor" stroke="none">
<path d="M1150 2350 c-55 -9 -151 -48 -205 -82 -71 -45 -179 -160 -187 -200
-2 -7 -6 -15 -9 -18 -3 -3 -13 -18 -21 -34 l-15 -29 1 44 1 44 -90 3 c-92 3
-215 -20 -215 -40 0 -5 -4 -6 -10 -3 -5 3 -10 1 -10 -5 0 -6 -4 -9 -10 -5 -5
3 -18 -2 -28 -12 -10 -10 -25 -19 -33 -21 -26 -5 -125 -120 -148 -173 -13 -30
-27 -61 -31 -69 -4 -8 -6 -27 -6 -42 1 -14 -2 -24 -7 -21 -5 3 -8 -10 -5 -31
2 -20 0 -36 -4 -36 -4 0 -8 -23 -8 -51 0 -27 4 -48 8 -45 4 2 6 -11 4 -30 -2
-18 -1 -42 4 -51 4 -10 8 -21 9 -25 2 -5 3 -9 5 -10 1 -2 3 -11 5 -20 6 -34
50 -111 74 -129 13 -10 20 -19 15 -19 -5 -1 13 -20 39 -44 66 -60 164 -107
227 -109 l50 -2 0 -346 c0 -285 3 -353 15 -382 13 -31 36 -54 55 -55 3 0 19
-6 35 -12 17 -7 35 -13 40 -14 6 -2 30 -8 54 -15 24 -7 52 -10 62 -8 12 3 16
1 13 -5 -5 -7 4 -9 24 -6 17 2 29 1 27 -3 -3 -4 9 -9 25 -11 17 -3 30 0 30 6
0 6 4 5 9 -3 7 -11 34 -15 104 -15 52 -1 93 -4 90 -8 -2 -5 64 -8 146 -8 83 0
151 3 151 8 0 4 30 5 66 4 37 -2 64 0 61 5 -3 4 20 8 51 9 67 1 140 13 165 26
9 5 22 6 27 3 5 -3 11 -1 15 5 3 5 15 10 26 10 11 0 36 7 57 16 20 10 43 18
50 20 18 3 48 31 52 47 1 6 5 174 7 372 l3 360 38 -1 c20 -1 42 1 47 5 6 3 13
6 18 7 4 1 8 2 10 4 1 1 11 3 21 5 10 2 22 7 25 12 3 4 12 9 20 11 44 9 188
143 175 163 -3 5 -1 9 5 9 6 0 17 14 26 30 9 17 13 30 9 30 -4 0 -1 6 5 14 7
8 16 29 22 48 13 47 24 208 13 208 -5 0 -9 24 -10 53 -1 53 -45 167 -65 167
-6 0 -8 4 -5 8 13 21 -144 169 -165 156 -5 -3 -9 -1 -9 5 0 9 -22 19 -45 22
-5 0 -15 5 -20 9 -20 17 -94 29 -99 16 -3 -7 -5 -7 -5 2 -1 14 -141 18 -141 3
0 -5 -9 -7 -20 -4 -15 4 -20 0 -20 -16 0 -12 3 -20 8 -18 4 3 7 -11 8 -30 1
-35 1 -35 -25 18 -30 63 -64 112 -105 154 -20 21 -24 22 -10 5 10 -14 -7 1
-39 33 -32 32 -62 55 -67 52 -6 -4 -10 -1 -10 4 0 11 -75 51 -102 55 -7 1 -17
4 -23 7 -5 4 -22 6 -37 5 -14 -1 -24 2 -21 7 3 5 -10 8 -30 5 -20 -2 -33 0
-31 4 6 10 -145 8 -206 -2z m724 -405 c-4 -8 -8 -15 -10 -15 -2 0 -4 7 -4 15
0 8 4 15 10 15 5 0 7 -7 4 -15z m-1174 -10 c0 -8 -2 -15 -4 -15 -2 0 -6 7 -10
15 -3 8 -1 15 4 15 6 0 10 -7 10 -15z m882 -363 l118 -118 0 -121 c0 -116 -1
-123 -26 -152 l-25 -30 26 -7 c59 -15 125 99 80 136 -38 32 1 93 45 70 24 -13
26 -52 5 -70 -8 -7 -15 -29 -15 -49 0 -29 -7 -44 -35 -71 -19 -19 -35 -38 -35
-42 0 -4 15 -8 33 -8 29 0 44 -11 100 -69 57 -59 67 -74 67 -105 0 -20 -4 -36
-10 -36 -5 0 -10 14 -10 31 0 24 -13 45 -62 96 -64 66 -77 71 -129 49 -12 -5
-18 -1 -23 17 -4 17 -15 26 -36 30 -37 8 -39 32 -5 59 24 19 25 23 25 146 l0
127 -104 104 -105 104 -171 1 -171 0 -104 -104 -105 -105 0 -108 c0 -96 -3
-111 -22 -140 -13 -18 -24 -34 -25 -36 -1 -2 -15 1 -31 7 -28 9 -33 6 -96 -54
-57 -55 -66 -68 -66 -99 0 -19 -4 -35 -10 -35 -5 0 -10 19 -10 42 0 39 5 47
70 111 73 71 88 109 55 137 -20 17 -19 57 3 68 9 6 27 6 40 1 26 -10 30 -50 6
-69 -21 -18 -15 -74 9 -78 36 -7 46 26 47 144 l0 110 118 117 119 117 173 0
174 0 118 -118z m-246 31 c-3 -4 4 -13 16 -20 13 -7 18 -12 11 -13 -12 0 -6
-37 9 -46 5 -3 21 -9 37 -14 25 -7 28 -6 24 11 -4 15 -1 18 11 13 11 -4 16 -1
16 10 0 26 13 19 65 -36 28 -29 41 -45 29 -35 -21 17 -21 17 -22 -15 -1 -18
-2 -46 -3 -62 -2 -30 19 -52 35 -36 16 16 35 -23 36 -72 0 -61 -7 -77 -31 -71
-59 16 -65 -78 -7 -100 10 -4 10 -7 -1 -18 -9 -9 -11 -9 -7 -1 4 6 2 12 -3 12
-6 0 -11 -9 -11 -20 0 -17 7 -20 53 -20 28 0 47 -4 41 -8 -7 -4 -8 -18 -3 -37
8 -27 13 -31 51 -32 23 -1 48 3 54 8 8 7 18 -1 33 -27 13 -22 27 -34 36 -31 7
3 19 -2 27 -11 8 -9 8 -13 1 -9 -6 4 -14 1 -16 -5 -4 -9 -12 -5 -26 12 -19 24
-20 24 -18 3 0 -12 4 -20 8 -17 13 7 20 -15 22 -61 1 -32 4 -41 12 -35 7 6 15
7 18 3 4 -3 7 -1 7 6 0 9 4 9 14 -1 8 -7 14 -15 14 -18 -1 -21 4 -30 12 -25 6
4 10 -13 10 -44 0 -41 -3 -49 -15 -45 -8 4 -15 11 -15 17 0 6 -3 7 -6 4 -4 -4
-1 -13 5 -21 10 -12 9 -14 -8 -9 -12 3 -21 1 -21 -6 0 -5 -6 -8 -13 -5 -9 3
-17 -8 -25 -31 -9 -31 -8 -36 4 -31 8 3 14 -1 14 -9 0 -8 7 -15 15 -15 24 0
18 -13 -27 -56 -37 -35 -46 -39 -64 -30 -11 6 -19 18 -17 26 3 9 0 8 -7 -3
-11 -17 -13 -17 -30 3 l-18 21 -8 -23 c-4 -13 -5 -23 -3 -24 2 0 -4 -9 -14
-19 -14 -13 -15 -20 -6 -26 7 -4 -22 -9 -63 -11 -57 -2 -74 0 -67 8 6 8 5 17
-4 26 -7 7 -12 18 -10 24 2 6 -14 16 -37 22 -22 5 -38 6 -35 2 9 -15 -6 -37
-25 -35 -25 2 -50 24 -44 40 3 7 -7 22 -22 34 -15 12 -21 21 -13 21 11 0 11 2
-1 10 -13 9 -13 10 0 11 8 1 18 1 23 0 4 0 7 8 7 20 0 11 -4 17 -10 14 -6 -3
-7 1 -4 9 3 9 11 16 18 17 6 0 2 4 -9 8 -11 5 -25 4 -32 -1 -7 -6 -13 -4 -16
4 -4 9 -8 10 -14 3 -4 -6 -21 -18 -36 -28 -15 -10 -37 -32 -48 -50 l-21 -32 6
30 c4 18 3 25 -2 17 -11 -16 -42 -5 -42 16 0 13 -3 12 -16 -4 -8 -10 -12 -13
-9 -6 6 11 3 11 -14 0 -12 -7 -22 -16 -22 -20 -1 -5 -3 -12 -4 -18 -1 -5 -3
-17 -4 -25 -1 -10 -12 -15 -31 -15 -16 0 -30 -4 -30 -10 0 -5 -16 -10 -35 -10
-26 0 -33 3 -29 15 4 9 0 15 -7 15 -9 0 -10 3 -3 8 7 5 8 18 2 40 -8 29 -10
31 -24 17 -9 -8 -21 -15 -27 -15 -7 0 -6 4 3 10 12 8 11 10 -7 10 -15 0 -21
-5 -17 -14 3 -9 -1 -13 -13 -13 -19 2 -39 25 -29 34 3 4 6 1 6 -5 0 -7 5 -12
12 -12 16 0 -6 23 -26 26 -22 3 -70 38 -57 42 6 2 9 8 5 13 -3 5 0 9 6 9 7 0
10 13 8 33 -2 25 -7 32 -23 30 -11 -1 -23 4 -27 10 -12 18 -9 29 5 21 9 -6 9
-5 0 7 -6 8 -13 30 -16 49 -3 27 -4 24 -4 -13 0 -26 -3 -51 -9 -57 -5 -6 -8
18 -6 63 l3 72 43 0 42 0 -6 36 c-8 44 -18 61 -32 53 -21 -13 11 32 47 66 27
25 39 31 42 21 5 -11 7 -11 15 0 7 10 9 8 5 -7 -4 -17 -1 -20 15 -16 11 3 24
-1 29 -9 7 -11 9 -10 9 4 0 9 7 17 16 17 12 0 15 7 12 30 -5 34 5 40 67 40 43
0 55 10 55 47 0 11 -8 14 -35 11 l-35 -4 0 68 c0 37 3 68 8 68 4 0 6 -24 5
-52 -2 -58 2 -49 12 24 4 35 10 46 20 42 21 -8 41 6 24 17 -10 6 -11 9 -1 9 6
0 12 9 12 20 0 11 -4 20 -10 20 -5 0 -10 9 -10 20 0 13 5 18 15 14 11 -5 13
-2 9 10 -4 11 -2 16 7 14 7 -2 14 4 14 12 1 8 5 14 11 13 5 -1 11 8 11 19 2
17 -8 12 -50 -28 l-52 -49 50 53 c42 45 52 50 61 37 6 -8 16 -15 23 -15 6 0
14 -7 17 -15 4 -8 10 -12 15 -9 5 3 7 9 5 13 -3 4 5 7 16 7 16 -1 24 7 30 32
5 18 15 32 23 32 8 0 15 5 15 10 0 6 19 10 42 10 23 0 38 -3 34 -7z m-519
-1081 c10 3 26 9 36 13 13 6 18 1 23 -24 l7 -31 131 0 132 0 39 40 39 40 73
-72 c68 -68 74 -71 98 -60 37 17 43 15 47 -15 l3 -28 120 0 120 0 3 28 c4 30
10 32 47 15 24 -11 30 -8 95 57 58 58 70 75 70 102 0 18 5 33 10 33 6 0 10
-17 10 -37 -1 -33 -10 -48 -70 -110 -58 -62 -74 -73 -102 -73 -23 0 -37 -7
-46 -20 -12 -19 -21 -20 -140 -18 -120 3 -128 4 -137 25 -7 17 -15 21 -38 16
-24 -5 -35 1 -72 37 -37 37 -46 41 -60 30 -19 -16 -19 -49 1 -71 19 -22 11
-56 -16 -64 -43 -14 -69 31 -40 68 11 14 20 34 20 45 0 11 7 25 15 32 19 16
19 29 0 36 -9 4 -31 -8 -55 -30 l-40 -36 -126 0 c-120 0 -126 1 -148 25 -14
15 -34 25 -52 25 -22 0 -44 16 -96 67 -38 37 -68 75 -68 85 0 10 27 -11 74
-59 54 -55 79 -74 93 -71z m-66 131 c13 -16 12 -17 -3 -4 -10 7 -18 15 -18 17
0 8 8 3 21 -13z m60 -60 c13 -16 12 -17 -3 -4 -10 7 -18 15 -18 17 0 8 8 3 21
-13z M791 1331 c-15 -10 -8 -41 9 -41 15 0 25 29 14 40 -5 5 -15 5 -23 1z
M1762 1313 c2 -10 10 -18 18 -18 8 0 16 8 18 18 2 12 -3 17 -18 17 -15 0 -20
-5 -18 -17z M1473 1531 c0 -11 5 -17 10 -14 4 3 18 -3 30 -13 12 -10 9 -4 -7
14 -35 38 -35 38 -33 13z M1340 1424 c0 -10 5 -26 10 -34 8 -11 9 -7 4 15 -8
37 -14 45 -14 19z M1219 1393 c-13 -16 -12 -17 4 -4 9 7 17 15 17 17 0 8 -8 3
-21 -13z M1050 1350 c-9 -6 -10 -10 -3 -10 6 0 15 5 18 10 8 12 4 12 -15 0z
M1337 1329 c4 -13 8 -18 11 -10 2 7 -1 18 -6 23 -8 8 -9 4 -5 -13z M1574 1305
c0 -25 4 -45 9 -45 10 0 9 78 -2 84 -5 3 -8 -15 -7 -39z M1235 1331 c-3 -5 -1
-12 5 -16 5 -3 10 1 10 9 0 18 -6 21 -15 7z M1370 1325 c-10 -12 -10 -15 4
-15 9 0 16 7 16 15 0 8 -2 15 -4 15 -2 0 -9 -7 -16 -15z M1331 1284 c0 -11 3
-14 6 -6 3 7 2 16 -1 19 -3 4 -6 -2 -5 -13z M1280 1270 c0 -5 5 -10 10 -10 6
0 10 5 10 10 0 6 -4 10 -10 10 -5 0 -10 -4 -10 -10z M1311 1254 c0 -11 3 -14
6 -6 3 7 2 16 -1 19 -3 4 -6 -2 -5 -13z M956 1135 c4 -8 10 -15 15 -15 4 0 6
7 3 15 -4 8 -10 15 -15 15 -4 0 -6 -7 -3 -15z M1135 1110 c-3 -6 1 -7 9 -4 18
7 21 14 7 14 -6 0 -13 -4 -16 -10z M958 1087 c-3 -19 -2 -25 4 -19 6 6 8 18 6
28 -3 14 -5 12 -10 -9z M1252 1090 c0 -14 2 -19 5 -12 2 6 2 18 0 25 -3 6 -5
1 -5 -13z M1283 1083 c-8 -2 -13 -22 -13 -44 0 -37 1 -38 20 -27 13 9 20 24
20 45 0 33 -3 36 -27 26z M1476 1069 c2 -4 -2 -10 -8 -12 -8 -4 -9 -6 -2 -6 6
-1 17 5 23 12 8 10 7 14 -4 14 -8 0 -12 -4 -9 -8z M1014 1049 c-3 -6 -15 -9
-25 -6 -11 3 -19 1 -19 -4 0 -5 8 -9 18 -9 9 0 27 -3 40 -6 16 -5 22 -2 22 9
0 8 6 18 13 20 6 3 0 6 -15 6 -15 1 -30 -4 -34 -10z M791 1041 c-11 -7 -10
-14 5 -40 22 -38 51 -49 72 -27 15 15 15 16 -1 16 -9 0 -17 4 -17 9 0 5 -12
12 -26 15 -17 5 -24 12 -20 21 6 17 6 18 -13 6z M1143 996 l-31 -11 22 -28 22
-27 21 38 c22 42 17 45 -34 28z M1349 970 c-15 -17 -23 -30 -19 -30 7 0 32 26
44 48 11 19 3 14 -25 -18z M1055 934 c2 -10 4 -23 4 -28 1 -6 6 -5 13 2 10 10
9 16 -4 29 -15 15 -16 15 -13 -3z M1558 933 c7 -3 16 -2 19 1 4 3 -2 6 -13 5
-11 0 -14 -3 -6 -6z M950 885 c-2 -29 -2 -29 -9 -5 -5 17 -9 21 -15 12 -4 -7
-4 -22 -1 -33 5 -16 12 -19 31 -15 15 4 24 2 24 -5 0 -26 12 2 17 38 3 25 1
33 -5 24 -8 -11 -10 -11 -15 0 -3 8 -6 1 -7 -16 l-2 -30 -8 30 -8 30 -2 -30z
M1449 893 c-13 -16 -12 -17 4 -4 16 13 21 21 13 21 -2 0 -10 -8 -17 -17z
M1248 883 c7 -3 16 -2 19 1 4 3 -2 6 -13 5 -11 0 -14 -3 -6 -6z M1376 864 c-4
-9 -4 -19 -1 -22 2 -3 7 3 11 12 4 9 4 19 1 22 -2 3 -7 -3 -11 -12z M1170 850
c0 -19 3 -21 12 -12 9 9 9 15 0 24 -9 9 -12 7 -12 -12z M1081 844 c0 -11 3
-14 6 -6 3 7 2 16 -1 19 -3 4 -6 -2 -5 -13z M1521 837 c-13 -21 -12 -21 5 -5
10 10 16 20 13 22 -3 3 -11 -5 -18 -17z M1598 836 c-3 -16 -1 -26 6 -26 7 0
17 -10 22 -22 6 -13 9 -17 7 -10 -1 6 2 12 7 12 6 0 10 5 10 11 0 5 -5 7 -10
4 -6 -4 -16 8 -24 26 l-13 31 -5 -26z M1008 818 c-3 -18 0 -28 8 -28 7 0 14
-5 16 -11 2 -6 12 -1 23 11 l20 22 -24 -3 c-14 -3 -26 2 -29 10 -3 8 0 11 7 7
6 -4 11 -1 11 7 0 26 -28 14 -32 -15z M905 811 c-3 -5 -1 -12 5 -16 5 -3 10 1
10 9 0 18 -6 21 -15 7z M1478 765 c2 -20 7 -34 10 -31 8 8 34 -32 28 -43 -3
-5 2 -15 12 -22 14 -11 15 -11 5 1 -9 9 -9 19 -2 32 8 15 7 24 -7 39 -9 10
-21 16 -26 13 -5 -4 -8 4 -6 16 2 13 -2 25 -8 27 -6 2 -8 -10 -6 -32z M1740
744 c0 -14 4 -23 9 -20 5 3 7 15 4 26 -7 28 -13 25 -13 -6z M1130 741 c-7 -15
-7 -21 0 -21 12 0 25 28 17 36 -3 3 -10 -4 -17 -15z M1170 733 c0 -6 8 -17 18
-24 16 -13 16 -13 2 6 -8 11 -16 22 -17 24 -2 2 -3 0 -3 -6z M1635 730 c-3 -5
-1 -10 4 -10 6 0 11 5 11 10 0 6 -2 10 -4 10 -3 0 -8 -4 -11 -10z M892 704
c10 -10 20 -15 24 -12 3 4 -5 12 -18 18 -22 12 -22 12 -6 -6z M935 680 c3 -5
8 -10 11 -10 2 0 4 5 4 10 0 6 -5 10 -11 10 -5 0 -7 -4 -4 -10z M1021 664 c0
-11 3 -14 6 -6 3 7 2 16 -1 19 -3 4 -6 -2 -5 -13z M1400 670 c0 -5 -7 -10 -16
-10 -8 0 -12 -4 -9 -10 3 -5 0 -20 -6 -32 -12 -22 -11 -22 7 -8 10 8 23 21 27
28 5 7 13 10 19 6 6 -4 6 2 -1 15 -13 23 -21 27 -21 11z M982 650 c0 -14 2
-19 5 -12 2 6 2 18 0 25 -3 6 -5 1 -5 -13z M1440 656 c0 -2 8 -10 18 -17 15
-13 16 -12 3 4 -13 16 -21 21 -21 13z M1336 583 c-3 -4 4 -17 16 -30 12 -13
16 -23 9 -23 -7 0 -9 -5 -5 -11 4 -8 9 -7 15 2 4 7 4 18 -1 25 -6 6 -8 13 -5
16 3 3 -1 10 -8 16 -8 7 -17 9 -21 5z M1505 562 c-15 -11 -17 -32 -2 -26 8 3
14 11 14 19 0 8 -1 15 -1 15 -1 0 -5 -4 -11 -8z M1593 520 c0 -25 2 -35 4 -22
2 12 2 32 0 45 -2 12 -4 2 -4 -23z M1745 550 c-3 -5 -3 -10 2 -10 4 0 1 -5 -7
-11 -12 -8 -12 -10 -1 -7 8 2 15 12 17 21 3 19 -2 22 -11 7z M1533 500 c0 -25
2 -35 4 -22 2 12 2 32 0 45 -2 12 -4 2 -4 -23z M1210 370 c0 -15 5 -20 18 -18
9 2 17 10 17 18 0 8 -8 16 -17 18 -13 2 -18 -3 -18 -18z"/>
</g>
</svg>
